<?xml version="1.0" encoding="UTF-8"?><svg id="Layer_2" xmlns="http://www.w3.org/2000/svg" viewBox="0 0 19.5 16.5"><defs><style>.cls-1{fill:#000;stroke-width:0px;}</style></defs><g id="Layer_1-2"><path class="cls-1" d="m18,3h-7.94L7.5.44c-.14-.14-.3-.25-.49-.33C6.83.04,6.64,0,6.44,0H1.5C1.1,0,.72.16.44.44c-.28.28-.44.66-.44,1.06v13.56c0,.38.15.75.42,1.02.27.27.64.42,1.02.42h16.64c.38,0,.74-.15,1-.42s.41-.63.42-1V4.5c0-.4-.16-.78-.44-1.06-.28-.28-.66-.44-1.06-.44ZM1.5,1.5h4.94l1.5,1.5H1.5v-1.5Zm10.5,9h-1.5v1.5c0,.2-.08.39-.22.53-.14.14-.33.22-.53.22s-.39-.08-.53-.22c-.14-.14-.22-.33-.22-.53v-1.5h-1.5c-.2,0-.39-.08-.53-.22-.14-.14-.22-.33-.22-.53s.08-.39.22-.53c.14-.14.33-.22.53-.22h1.5v-1.5c0-.2.08-.39.22-.53.14-.14.33-.22.53-.22s.39.08.53.22c.14.14.22.33.22.53v1.5h1.5c.2,0,.39.08.53.22.14.14.22.33.22.53s-.08.39-.22.53c-.14.14-.33.22-.53.22Z"/></g></svg>