<?xml version="1.0" encoding="UTF-8"?><svg id="Layer_2" xmlns="http://www.w3.org/2000/svg" viewBox="0 0 20.25 19.5"><defs><style>.cls-1{fill:#000;stroke-width:0px;}</style></defs><g id="Layer_1-2"><path class="cls-1" d="m7.85.19c1.89-.38,3.85-.18,5.63.55,1.78.74,3.3,1.99,4.38,3.59.22.33.42.67.59,1.02l-1.07,1.26s0,0,0,0l-5.04,5.93h.02s-1.12,1.32-1.12,1.32l-.44-.08-2.16-.39,1.39,3.9.72,2.16c-.33.03-.65.05-.98.05h0c-1.93,0-3.81-.57-5.42-1.64-1.6-1.07-2.85-2.59-3.59-4.38C0,11.7-.19,9.74.19,7.85c.38-1.89,1.3-3.63,2.67-4.99C4.22,1.49,5.96.56,7.85.19ZM2.88,14.32c.65.98,1.5,1.8,2.5,2.43,1,.62,2.11,1.02,3.28,1.18l-2.62-7.33-3.16,3.72Zm-.52-8.23c-.52,1.05-.81,2.2-.85,3.38-.04,1.17.17,2.34.61,3.43l5.04-5.93-4.8-.88Zm11.1,2.82l3.16-3.73c-.3-.45-.65-.88-1.04-1.26-1.28-1.28-2.95-2.11-4.74-2.34l2.62,7.33ZM9.23,1.52c-2,.12-3.9.97-5.31,2.4-.25.25-.48.52-.7.8l7.65,1.39-1.64-4.59Z"/><path class="cls-1" d="m19.84,18.67c-.1.05-.22.08-.34.08-.14,0-.28-.04-.39-.11-.12-.07-.21-.18-.28-.3l-.92-1.84h-3.57l-.92,1.84c-.09.18-.25.31-.43.38-.19.06-.39.05-.57-.04-.18-.09-.31-.25-.38-.43-.06-.19-.05-.39.04-.57l3.38-6.75c.06-.12.16-.23.28-.3.12-.07.25-.11.39-.11s.28.04.39.11c.12.07.21.18.28.3l3.38,6.75c.09.18.1.38.04.57-.06.19-.2.34-.38.43Zm-2.67-3.67l-1.04-2.07-1.04,2.07h2.07Z"/></g></svg>