<?xml version="1.0" encoding="UTF-8"?><svg id="Layer_2" xmlns="http://www.w3.org/2000/svg" viewBox="0 0 18 18.75"><defs><style>.cls-1{opacity:.98;}.cls-2{fill:#000;stroke-width:0px;}</style></defs><g id="Layer_1-2"><g class="cls-1"><path class="cls-2" d="m.78.47c.23-.23.58-.28.86-.14.04.07.08.14.14.2l15.94,15.94c.06.06.13.1.2.14.14.28.09.63-.14.86-.29.29-.77.29-1.06,0l-7.72-7.72v4.5c0,1.03-.35,2.03-1,2.83-.65.8-1.55,1.36-2.56,1.57-1.01.22-2.06.08-2.98-.39-.92-.47-1.65-1.23-2.07-2.17-.42-.94-.51-2-.24-2.99.26-1,.86-1.87,1.7-2.48.83-.61,1.85-.91,2.88-.86,1.03.05,2.01.45,2.78,1.14v-2.65L.78,1.53c-.29-.29-.29-.77,0-1.06ZM8.12.01c.12-.02.23-.01.35.02l7.5,2.25c.15.05.29.14.39.27.1.13.15.29.15.45v4.5c0,.12-.03.23-.08.34-.05.1-.13.2-.22.27-.09.07-.2.12-.32.14-.11.02-.23.01-.35-.02l-5.63-1.69-2.4-2.4V.75c0-.12.03-.23.08-.34.05-.1.13-.19.22-.26.09-.07.2-.12.32-.14Z"/></g></g></svg>