<?xml version="1.0" encoding="UTF-8"?><svg id="Layer_2" xmlns="http://www.w3.org/2000/svg" viewBox="0 0 18 18"><defs><style>.cls-1{fill:#000;stroke-width:0px;}</style></defs><g id="Layer_1-2"><path class="cls-1" d="m16.5,0H1.5c-.4,0-.78.16-1.06.44-.28.28-.44.66-.44,1.06v15c0,.4.16.78.44,1.06.28.28.66.44,1.06.44h15c.4,0,.78-.16,1.06-.44s.44-.66.44-1.06V1.5c0-.4-.16-.78-.44-1.06-.28-.28-.66-.44-1.06-.44ZM5.47,7.72c.07-.07.15-.13.24-.16.09-.04.19-.06.29-.06s.2.02.29.06c.09.04.17.09.24.16l1.72,1.72V3.75c0-.2.08-.39.22-.53.14-.14.33-.22.53-.22s.39.08.53.22c.14.14.22.33.22.53v5.69l1.72-1.72c.07-.07.15-.12.24-.16.09-.04.19-.06.29-.06s.2.02.29.06c.09.04.17.09.24.16.07.07.12.15.16.24.04.09.06.19.06.29s-.02.2-.06.29c-.04.09-.09.17-.16.24l-3,3c-.07.07-.15.13-.24.16-.09.04-.19.06-.29.06s-.2-.02-.29-.06c-.09-.04-.17-.09-.24-.16l-3-3c-.07-.07-.13-.15-.16-.24-.04-.09-.06-.19-.06-.29s.02-.2.06-.29c.04-.09.09-.17.16-.24Zm11.03,8.78H1.5v-3.75h2.69l1.81,1.81c.14.14.3.25.49.33.18.08.38.11.57.11h3.88c.2,0,.39-.04.57-.11.18-.08.35-.19.49-.33l1.81-1.81h2.69v3.75Z"/></g></svg>