<?xml version="1.0" encoding="UTF-8"?><svg id="Layer_2" xmlns="http://www.w3.org/2000/svg" viewBox="0 0 13.5 21"><defs><style>.cls-1{opacity:.98;}.cls-2{fill:#000;stroke-width:0px;}</style></defs><g id="Layer_1-2"><g class="cls-1"><path class="cls-2" d="m12,0H1.5c-.4,0-.78.16-1.06.44s-.44.66-.44,1.06v4.25c0,.32.11.64.3.9l1.95,2.6v10.25c0,.4.16.78.44,1.06s.66.44,1.06.44h6c.4,0,.78-.16,1.06-.44s.44-.66.44-1.06v-10.25l1.95-2.6c.19-.26.3-.58.3-.9V1.5c0-.4-.16-.78-.44-1.06s-.66-.44-1.06-.44Zm-4.5,12.75c0,.2-.08.39-.22.53-.14.14-.33.22-.53.22s-.39-.08-.53-.22c-.14-.14-.22-.33-.22-.53v-3c0-.2.08-.39.22-.53.14-.14.33-.22.53-.22s.39.08.53.22c.14.14.22.33.22.53v3ZM1.5,3.75V1.5h10.5v2.25H1.5Z"/></g></g></svg>