<?xml version="1.0" encoding="UTF-8"?><svg id="Layer_2" xmlns="http://www.w3.org/2000/svg" viewBox="0 0 19.5 18"><defs><style>.cls-1{fill:#000;stroke-width:0px;}</style></defs><g id="Layer_1-2"><path class="cls-1" d="m19.5,9c0,2.37-.93,4.64-2.59,6.32-1.66,1.68-3.92,2.65-6.29,2.68h-.12c-2.3,0-4.51-.87-6.18-2.46-.07-.07-.13-.15-.17-.24-.04-.09-.06-.19-.07-.29,0-.1.01-.2.05-.29.04-.09.09-.18.16-.25.07-.07.15-.13.24-.17.09-.04.19-.06.29-.07.1,0,.2.01.29.05s.18.09.25.16c1.07,1.01,2.42,1.68,3.87,1.93,1.45.25,2.95.07,4.3-.53,1.35-.59,2.49-1.57,3.29-2.81.8-1.24,1.21-2.69,1.19-4.16-.02-1.47-.48-2.91-1.31-4.13-.83-1.22-2-2.16-3.37-2.72-1.37-.55-2.86-.69-4.31-.4-1.44.29-2.77,1-3.81,2.05,0,0-.02.02-.02.02l-.99.9,1.59,1.59c.11.1.18.24.21.38.03.15.02.3-.04.44-.06.14-.15.26-.28.34-.12.08-.27.13-.42.13H.75c-.2,0-.39-.08-.53-.22C.08,7.14,0,6.95,0,6.75V2.25c0-.15.04-.29.12-.42.08-.12.2-.22.34-.28.14-.06.29-.07.43-.04.15.03.28.1.39.21l1.84,1.85,1.03-.94C5.41,1.37,7.01.51,8.76.17c1.74-.34,3.55-.16,5.19.52,1.64.68,3.05,1.84,4.03,3.31.99,1.48,1.51,3.22,1.51,5Z"/></g></svg>