<?xml version="1.0" encoding="UTF-8"?><svg id="Layer_2" xmlns="http://www.w3.org/2000/svg" viewBox="0 0 18 18"><defs><style>.cls-1{fill:#000;stroke-width:0px;}</style></defs><g id="Layer_1-2"><path class="cls-1" d="m16.5,0H1.5c-.4,0-.78.16-1.06.44-.28.28-.44.66-.44,1.06v15c0,.4.16.78.44,1.06.28.28.66.44,1.06.44h15c.4,0,.78-.16,1.06-.44s.44-.66.44-1.06V1.5c0-.4-.16-.78-.44-1.06-.28-.28-.66-.44-1.06-.44ZM3.38,14.62c-.22,0-.44-.07-.63-.19-.18-.12-.33-.3-.41-.5-.09-.21-.11-.43-.06-.65.04-.22.15-.42.31-.58.16-.16.36-.26.58-.31.22-.04.44-.02.65.06.21.09.38.23.5.41.12.18.19.4.19.62,0,.3-.12.58-.33.8-.21.21-.5.33-.8.33Zm0-4.5c-.22,0-.44-.07-.63-.19-.18-.12-.33-.3-.41-.5-.09-.21-.11-.43-.06-.65.04-.22.15-.42.31-.58.16-.16.36-.26.58-.31.22-.04.44-.02.65.06.21.09.38.23.5.41.12.18.19.4.19.62,0,.3-.12.58-.33.8-.21.21-.5.33-.8.33Zm0-4.5c-.22,0-.44-.07-.63-.19-.18-.12-.33-.3-.41-.5-.09-.21-.11-.43-.06-.65.04-.22.15-.42.31-.58.16-.16.36-.26.58-.31.22-.04.44-.02.65.06.21.09.38.23.5.41.12.19.19.4.19.62,0,.3-.12.58-.33.8-.21.21-.5.33-.8.33Zm11.62,8.62H6.75c-.2,0-.39-.08-.53-.22-.14-.14-.22-.33-.22-.53s.08-.39.22-.53c.14-.14.33-.22.53-.22h8.25c.2,0,.39.08.53.22.14.14.22.33.22.53s-.08.39-.22.53c-.14.14-.33.22-.53.22Zm0-4.5H6.75c-.2,0-.39-.08-.53-.22-.14-.14-.22-.33-.22-.53s.08-.39.22-.53c.14-.14.33-.22.53-.22h8.25c.2,0,.39.08.53.22.14.14.22.33.22.53s-.08.39-.22.53c-.14.14-.33.22-.53.22Zm0-4.5H6.75c-.2,0-.39-.08-.53-.22-.14-.14-.22-.33-.22-.53s.08-.39.22-.53c.14-.14.33-.22.53-.22h8.25c.2,0,.39.08.53.22.14.14.22.33.22.53s-.08.39-.22.53c-.14.14-.33.22-.53.22Z"/></g></svg>