<?xml version="1.0" encoding="UTF-8"?><svg id="Layer_2" xmlns="http://www.w3.org/2000/svg" viewBox="0 0 19.62 19.62"><defs><style>.cls-1{opacity:.98;}.cls-2{fill:#000;stroke-width:0px;}</style></defs><g id="Layer_1-2"><g class="cls-1"><path class="cls-2" d="m18.06,10.01c0-.14,0-.27,0-.41l1.4-1.75c.07-.09.12-.2.15-.31.02-.11.02-.23,0-.35-.23-.86-.57-1.69-1.02-2.46-.06-.1-.14-.19-.24-.25-.1-.06-.21-.1-.32-.12l-2.22-.25c-.09-.1-.19-.19-.28-.28l-.26-2.23c-.01-.12-.05-.23-.12-.33s-.15-.18-.25-.24c-.77-.45-1.6-.79-2.46-1.02-.11-.03-.23-.03-.35,0-.11.02-.22.07-.31.15l-1.74,1.39h-.41L7.86.16c-.09-.07-.2-.12-.31-.15-.11-.02-.23-.02-.35,0-.86.23-1.69.57-2.46,1.02-.1.06-.19.14-.25.24-.06.1-.1.21-.12.32l-.25,2.23c-.1.09-.19.19-.28.28l-2.23.26c-.12.01-.23.05-.32.12-.1.06-.18.15-.24.25-.45.77-.79,1.6-1.02,2.46-.03.11-.03.23,0,.35.02.11.08.22.15.31l1.39,1.74v.41l-1.4,1.75c-.07.09-.12.2-.15.31-.02.12-.02.23,0,.35.23.86.57,1.69,1.02,2.46.06.1.14.19.24.25.1.06.21.1.32.12l2.22.25c.09.1.19.19.28.28l.26,2.23c.01.12.05.23.12.33.06.1.15.18.25.24.77.45,1.6.79,2.46,1.02.11.03.23.03.35,0,.11-.02.22-.08.31-.15l1.74-1.39c.14,0,.27,0,.41,0l1.75,1.4c.09.07.2.12.31.15.11.02.23.02.35,0,.86-.23,1.69-.57,2.46-1.02.1-.06.19-.14.25-.24.06-.1.1-.21.12-.32l.25-2.22c.1-.09.19-.19.28-.28l2.23-.26c.12-.01.23-.05.33-.12.1-.06.18-.15.24-.25.45-.77.79-1.6,1.02-2.46.03-.11.03-.23,0-.35-.02-.11-.08-.22-.15-.31l-1.39-1.74Zm-8.25,3.55c-.74,0-1.47-.22-2.08-.63-.62-.41-1.1-1-1.38-1.68-.28-.69-.36-1.44-.21-2.17.14-.73.5-1.4,1.03-1.92.52-.52,1.19-.88,1.92-1.03.73-.14,1.48-.07,2.17.21.69.28,1.27.76,1.68,1.38.41.62.63,1.34.63,2.08,0,.99-.4,1.95-1.1,2.65-.7.7-1.66,1.1-2.65,1.1Z"/></g></g></svg>