<?xml version="1.0" encoding="UTF-8"?><svg id="Layer_2" xmlns="http://www.w3.org/2000/svg" viewBox="0 0 22.5 18"><defs><style>.cls-1{opacity:.98;}.cls-2{fill:#000;stroke-width:0px;}</style></defs><g id="Layer_1-2"><g class="cls-1"><path class="cls-2" d="m16.5,2.25v13.5c0,.6-.24,1.17-.66,1.59-.42.42-.99.66-1.59.66h-6c-.6,0-1.17-.24-1.59-.66-.42-.42-.66-.99-.66-1.59V2.25c0-.6.24-1.17.66-1.59s.99-.66,1.59-.66h6c.6,0,1.17.24,1.59.66.42.42.66.99.66,1.59Zm2.25,2.25c-.2,0-.39.08-.53.22-.14.14-.22.33-.22.53v7.5c0,.2.08.39.22.53.14.14.33.22.53.22s.39-.08.53-.22c.14-.14.22-.33.22-.53v-7.5c0-.2-.08-.39-.22-.53-.14-.14-.33-.22-.53-.22Zm3,1.5c-.2,0-.39.08-.53.22-.14.14-.22.33-.22.53v4.5c0,.2.08.39.22.53.14.14.33.22.53.22s.39-.08.53-.22c.14-.14.22-.33.22-.53v-4.5c0-.2-.08-.39-.22-.53-.14-.14-.33-.22-.53-.22ZM3.75,4.5c-.2,0-.39.08-.53.22-.14.14-.22.33-.22.53v7.5c0,.2.08.39.22.53.14.14.33.22.53.22s.39-.08.53-.22c.14-.14.22-.33.22-.53v-7.5c0-.2-.08-.39-.22-.53-.14-.14-.33-.22-.53-.22Zm-3,1.5c-.2,0-.39.08-.53.22-.14.14-.22.33-.22.53v4.5c0,.2.08.39.22.53.14.14.33.22.53.22s.39-.08.53-.22c.14-.14.22-.33.22-.53v-4.5c0-.2-.08-.39-.22-.53-.14-.14-.33-.22-.53-.22Z"/></g></g></svg>