<?xml version="1.0" encoding="UTF-8"?><svg id="Layer_2" xmlns="http://www.w3.org/2000/svg" viewBox="0 0 21 21"><defs><style>.cls-1{fill:#000;stroke-width:0px;}</style></defs><g id="Layer_1-2"><path class="cls-1" d="m20.25,9.75h-.78c-.18-2.12-1.1-4.11-2.61-5.61-1.5-1.5-3.49-2.43-5.61-2.61v-.78c0-.2-.08-.39-.22-.53-.14-.14-.33-.22-.53-.22s-.39.08-.53.22c-.14.14-.22.33-.22.53v.78c-2.12.18-4.11,1.1-5.61,2.61-1.5,1.5-2.43,3.49-2.61,5.61h-.78c-.2,0-.39.08-.53.22-.14.14-.22.33-.22.53s.08.39.22.53c.14.14.33.22.53.22h.78c.18,2.12,1.1,4.11,2.61,5.61,1.5,1.5,3.49,2.43,5.61,2.61v.78c0,.2.08.39.22.53.14.14.33.22.53.22s.39-.08.53-.22c.14-.14.22-.33.22-.53v-.78c2.12-.18,4.11-1.1,5.61-2.61,1.5-1.5,2.43-3.49,2.61-5.61h.78c.2,0,.39-.08.53-.22.14-.14.22-.33.22-.53s-.08-.39-.22-.53c-.14-.14-.33-.22-.53-.22Zm-3,1.5h.71c-.18,1.72-.94,3.33-2.16,4.55-1.22,1.22-2.83,1.99-4.55,2.16v-.71c0-.2-.08-.39-.22-.53-.14-.14-.33-.22-.53-.22s-.39.08-.53.22c-.14.14-.22.33-.22.53v.71c-1.72-.18-3.33-.94-4.55-2.16-1.22-1.22-1.99-2.83-2.16-4.55h.71c.2,0,.39-.08.53-.22.14-.14.22-.33.22-.53s-.08-.39-.22-.53c-.14-.14-.33-.22-.53-.22h-.71c.18-1.72.94-3.33,2.16-4.55,1.22-1.22,2.83-1.99,4.55-2.16v.71c0,.2.08.39.22.53.14.14.33.22.53.22s.39-.08.53-.22c.14-.14.22-.33.22-.53v-.71c1.72.18,3.33.94,4.55,2.16,1.22,1.22,1.99,2.83,2.16,4.55h-.71c-.2,0-.39.08-.53.22-.14.14-.22.33-.22.53s.08.39.22.53c.14.14.33.22.53.22Zm-3-.75c0,.74-.22,1.47-.63,2.08-.41.62-1,1.1-1.68,1.38-.69.28-1.44.36-2.17.21-.73-.14-1.4-.5-1.92-1.03-.52-.52-.88-1.19-1.03-1.92-.14-.73-.07-1.48.21-2.17.28-.69.76-1.27,1.38-1.68.62-.41,1.34-.63,2.08-.63.99,0,1.95.4,2.65,1.1.7.7,1.1,1.66,1.1,2.65Z"/></g></svg>